HIERARCHY
ROOT Hips
{
	OFFSET	0.00	0.00	0.00
	CHANNELS 6 Xposition Yposition Zposition Zrotation Xrotation Yrotation
	JOINT LeftUpLeg
	{
		OFFSET	 0.126116	-0.014019	-0.065224
		CHANNELS 3 Zrotation Xrotation Yrotation
		JOINT LeftLeg
		{
			OFFSET	 0.000000	 0.000000	 0.569914
			CHANNELS 3 Zrotation Xrotation Yrotation
			JOINT LeftFoot
			{
				OFFSET	 0.000000	 0.000000	 0.544423
				CHANNELS 3 Zrotation Xrotation Yrotation
				JOINT LeftToeBase
				{
					OFFSET	 0.000000	 0.000000	 0.207117
					CHANNELS 3 Zrotation Xrotation Yrotation
					End Site
					{
						OFFSET	 0.000000	 0.000000	 0.207117
					}
				}
			}
		}
	}
	JOINT RightUpLeg
	{
		OFFSET	-0.124023	-0.008373	-0.065224
		CHANNELS 3 Zrotation Xrotation Yrotation
		JOINT RightLeg
		{
			OFFSET	 0.000000	 0.000000	 0.570047
			CHANNELS 3 Zrotation Xrotation Yrotation
			JOINT RightFoot
			{
				OFFSET	 0.000000	 0.000000	 0.544354
				CHANNELS 3 Zrotation Xrotation Yrotation
				JOINT RightToeBase
				{
					OFFSET	 0.000000	 0.000000	 0.207540
					CHANNELS 3 Zrotation Xrotation Yrotation
					End Site
					{
						OFFSET	 0.000000	 0.000000	 0.207540
					}
				}
			}
		}
	}
	JOINT Spine
	{
		OFFSET	 0.000184	-0.007763	 0.117403
		CHANNELS 3 Zrotation Xrotation Yrotation
		JOINT Spine1
		{
			OFFSET	 0.000000	 0.000000	 0.137269
			CHANNELS 3 Zrotation Xrotation Yrotation
			JOINT Spine2
			{
				OFFSET	 0.000000	 0.000000	 0.156879
				CHANNELS 3 Zrotation Xrotation Yrotation
				JOINT LeftShoulder
				{
					OFFSET	 0.080501	-0.002496	 0.160144
					CHANNELS 3 Zrotation Xrotation Yrotation
					JOINT LeftArm
					{
						OFFSET	 0.000000	 0.000000	 0.164363
						CHANNELS 3 Zrotation Xrotation Yrotation
						JOINT LeftForeArm
						{
							OFFSET	 0.000000	 0.000000	 0.364576
							CHANNELS 3 Zrotation Xrotation Yrotation
							JOINT LeftHand
							{
								OFFSET	 0.000000	 0.000000	 0.360812
								CHANNELS 3 Zrotation Xrotation Yrotation
								JOINT LeftHandIndex1
								{
									OFFSET	 0.000000	 0.000000	 0.086006
									CHANNELS 3 Zrotation Xrotation Yrotation
									JOINT LeftHandIndex2
									{
										OFFSET	 0.000000	 0.000000	 0.047236
										CHANNELS 3 Zrotation Xrotation Yrotation
										JOINT LeftHandIndex3
										{
											OFFSET	-0.004284	-0.000551	 0.038166
											CHANNELS 3 Zrotation Xrotation Yrotation
											End Site
											{
												OFFSET	-0.004284	-0.000551	 0.038166
											}
										}
									}
								}
							}
						}
					}
				}
				JOINT Neck
				{
					OFFSET	 0.000000	 0.000000	 0.176489
					CHANNELS 3 Zrotation Xrotation Yrotation
					JOINT Head
					{
						OFFSET	 0.000000	-0.001747	 0.077940
						CHANNELS 3 Zrotation Xrotation Yrotation
						End Site
						{
							OFFSET	 0.000000	-0.001747	 0.077940
						}
					}
				}
				JOINT RightShoulder
				{
					OFFSET	-0.080363	 0.000306	 0.159706
					CHANNELS 3 Zrotation Xrotation Yrotation
					JOINT RightArm
					{
						OFFSET	 0.000000	 0.000000	 0.164196
						CHANNELS 3 Zrotation Xrotation Yrotation
						JOINT RightForeArm
						{
							OFFSET	 0.000000	 0.000000	 0.365611
							CHANNELS 3 Zrotation Xrotation Yrotation
							JOINT RightHand
							{
								OFFSET	 0.000000	 0.000000	 0.360648
								CHANNELS 3 Zrotation Xrotation Yrotation
								JOINT RightHandIndex1
								{
									OFFSET	 0.000000	 0.000000	 0.069977
									CHANNELS 3 Zrotation Xrotation Yrotation
									JOINT RightHandIndex2
									{
										OFFSET	 0.000000	 0.000000	 0.052305
										CHANNELS 3 Zrotation Xrotation Yrotation
										JOINT RightHandIndex3
										{
											OFFSET	 0.009002	-0.000782	 0.042196
											CHANNELS 3 Zrotation Xrotation Yrotation
											End Site
											{
												OFFSET	 0.009002	-0.000782	 0.042196
											}
										}
									}
								}
							}
						}
					}
				}
			}
		}
	}
}
MOTION
Frames:    12
Frame Time: 0.03333334
-4.877423	-23.489050	 1.050554	-22.619220	 17.394740	 3.762495	 3.536396	-34.858000	 175.393000	-1.363304	-43.075670	-0.352934	-0.755142	 80.932020	 0.502923	-2.352759	 34.105140	-0.127540	-0.739311	-36.037250	-179.499200	-2.968479	-43.054570	-0.948383	-1.603435	 81.215980	 0.520349	 2.406661	 19.851340	-0.176055	 26.525680	 15.483780	 2.524329	-8.833621	 2.943742	-1.640778	-11.302100	-2.733409	-1.018666	-125.624100	 89.280170	-141.940600	 55.454770	 66.063220	-61.661080	-0.304575	-7.150450	-29.507840	 0.005476	-48.316920	-2.484190	-5.644828	-12.203110	-1.288086	-5.213516	-0.193813	 3.566525	-1.378229	 35.397820	-2.634230	 0.804753	 0.121714	-3.802742	-2.765253	-7.072399	 0.865515	 93.698670	 85.949290	 172.016200	-61.205770	 75.008740	 70.556950	-12.184860	-21.713290	 35.425130	-21.586410	-49.260890	 8.881082	-9.877789	-9.944103	-38.876970	 5.070815	-0.697434	-9.399699	-2.350882	 35.473990	 5.254307
-4.880998	-23.505700	 1.051113	-22.502660	 18.152360	 3.805022	 3.586738	-34.960590	 175.581700	-1.987681	-43.238690	-0.758883	-0.995360	 81.750690	 0.255293	-2.351121	 34.325080	-0.132753	-0.765388	-35.684650	-179.419100	-2.585809	-42.532260	-0.708986	-1.549573	 82.519480	 0.810891	 2.405522	 20.920160	-0.154779	 22.380900	 15.142550	 2.301610	-8.778425	 2.620646	-1.769541	-11.392050	-3.146449	-1.067731	-123.591400	 89.233570	-143.919900	 60.340570	 67.394740	-63.368950	 3.322889	-8.681890	-29.390820	 2.336067	-51.822240	-0.897758	-5.146448	-11.708500	-0.167600	-5.213516	-0.193813	 3.566525	-1.378229	 35.397820	-2.634230	 0.733441	-0.160226	-3.598883	-2.876414	-7.663540	 0.785313	 93.661000	 85.993520	 172.159000	-54.180120	 77.892930	 61.103900	-16.406870	-20.611740	 30.453520	-24.795890	-52.829290	 7.737118	-9.295176	-8.772027	-38.347790	 5.070815	-0.697434	-9.399699	-2.350882	 35.473990	 5.254307
-4.882909	-23.513920	 1.051157	-22.615150	 18.469220	 3.841064	 3.554466	-34.978880	 175.625800	-2.067948	-43.471370	-0.842782	-1.052771	 82.132890	 0.212117	-2.346033	 34.985750	-0.148529	-0.745409	-35.445460	-179.465800	-2.388710	-42.338040	-0.565343	-1.480839	 82.988200	 0.931269	 2.404962	 21.330450	-0.146567	 19.793370	 14.985470	 2.246097	-8.685721	 2.422080	-1.776713	-11.409360	-3.375895	-1.092118	-121.248600	 89.172910	-146.205700	 62.531860	 67.963260	-64.115170	 5.248496	-9.532272	-29.442180	 3.748177	-53.180810	 0.030679	-4.680995	-11.267310	 0.896935	-5.213516	-0.193813	 3.566525	-1.378229	 35.397820	-2.634230	 0.746560	-0.362900	-3.478727	-2.934576	-7.973357	 0.670615	 93.680100	 86.053950	 172.210700	-48.350910	 79.152170	 53.937640	-18.251910	-20.485850	 29.068620	-26.579420	-54.243400	 6.972836	-9.030871	-8.199100	-38.130070	 5.070815	-0.697434	-9.399699	-2.350882	 35.473990	 5.254307
-4.885236	-23.523900	 1.051476	-22.907040	 18.825050	 3.921551	 3.549165	-34.903280	 175.655800	-2.130614	-43.700420	-0.901024	-1.103747	 82.466600	 0.194680	-2.339051	 35.839240	-0.169229	-0.730482	-35.266190	-179.568200	-2.299326	-42.197510	-0.496344	-1.453850	 83.305930	 1.001722	 2.404681	 21.522240	-0.142719	 15.898580	 14.788960	 2.128337	-8.543652	 2.146481	-1.685421	-11.384570	-3.675965	-1.119413	-116.745400	 89.038560	-150.660500	 64.701660	 68.735330	-64.652370	 7.358269	-10.628270	-29.651270	 5.499618	-54.309090	 1.258111	-4.165829	-10.731750	 2.093565	-5.213516	-0.193813	 3.566525	-1.378229	 35.397820	-2.634230	 0.820548	-0.529372	-3.316410	-2.970387	-8.404921	 0.700406	 93.879930	 86.240430	 172.095300	-39.900490	 80.256390	 43.971440	-20.207540	-20.578270	 28.104730	-28.627860	-55.454880	 5.865254	-8.804702	-7.657341	-37.977230	 5.070815	-0.697434	-9.399699	-2.350882	 35.473990	 5.254307
-4.887030	-23.532430	 1.052591	-23.225300	 19.177830	 3.952574	 3.572592	-34.801160	 175.725200	-2.309954	-43.654480	-1.012829	-1.170841	 82.501140	 0.137171	-2.333158	 36.519560	-0.185977	-0.775966	-35.333790	-179.522200	-2.460280	-42.137890	-0.632046	-1.559788	 83.365730	 0.959899	 2.404600	 21.575340	-0.141654	 11.611350	 14.555810	 1.995203	-8.450367	 1.910467	-1.527186	-11.317100	-3.918635	-1.136594	-111.740400	 88.839720	-155.680900	 66.123090	 69.382190	-64.916260	 8.897916	-11.634130	-29.995710	 6.899801	-54.575130	 2.316936	-3.976924	-10.622520	 2.538531	-5.213516	-0.193813	 3.566525	-1.378229	 35.397820	-2.634230	 0.896270	-0.596017	-3.079851	-2.932178	-8.727958	 0.838025	 94.225680	 86.469640	 171.788000	-32.846050	 80.714200	 35.705920	-21.753500	-20.992630	 27.909690	-30.244400	-55.802390	 4.786462	-8.715578	-7.569634	-37.826980	 5.070815	-0.697434	-9.399699	-2.350882	 35.473990	 5.254307
-4.888975	-23.540580	 1.054385	-23.577590	 19.548750	 3.905087	 3.574776	-34.784690	 175.771100	-2.567908	-43.484320	-1.182723	-1.248686	 82.323530	 0.030815	-2.327509	 37.142880	-0.201525	-0.853011	-35.404570	-179.359500	-2.655351	-42.068420	-0.810354	-1.704389	 83.404770	 0.907430	 2.404515	 21.626820	-0.140616	 6.374672	 14.313920	 1.957795	-8.379230	 1.705057	-1.357700	-11.225800	-4.121600	-1.147154	-108.626400	 88.667630	-158.827300	 67.152310	 69.827810	-65.265350	 10.829810	-12.832940	-30.336170	 8.714411	-53.851030	 3.202143	-3.852473	-10.898870	 2.833169	-5.213516	-0.193813	 3.566525	-1.378229	 35.397820	-2.634230	 0.957506	-0.759466	-2.796363	-2.846406	-8.813209	 1.053635	 94.663280	 86.688490	 171.337000	-27.279890	 80.812320	 29.114560	-23.484010	-21.872120	 28.151800	-32.041320	-55.158070	 3.719735	-8.653100	-7.631673	-37.634040	 5.070815	-0.697434	-9.399699	-2.350882	 35.473990	 5.254307
-4.891117	-23.547390	 1.055846	-23.839190	 19.779640	 3.880934	 3.573612	-34.509730	 175.788600	-2.698799	-43.286180	-1.269369	-1.296754	 82.191670	-0.021918	-2.323356	 37.581580	-0.212594	-0.828472	-35.340450	-179.260100	-2.891557	-41.912940	-0.957861	-1.821011	 83.377860	 0.856150	 2.404579	 21.588100	-0.141394	 1.295142	 14.100090	 1.955125	-8.327907	 1.588817	-1.261837	-11.152660	-4.230950	-1.150223	-107.327100	 88.590000	-160.183100	 67.531370	 70.028820	-65.426470	 12.504330	-13.937160	-30.734730	 10.233540	-52.235260	 3.638463	-3.989581	-11.022710	 2.511491	-5.213516	-0.193813	 3.566525	-1.378229	 35.397820	-2.634230	 1.009465	-0.803938	-2.585944	-2.780650	-8.891869	 1.131044	 94.863170	 86.791610	 171.151300	-24.083650	 80.714580	 25.231620	-24.809460	-22.867500	 28.645960	-33.407810	-53.605090	 2.994215	-8.596542	-7.703908	-37.448310	 5.070815	-0.697434	-9.399699	-2.350882	 35.473990	 5.254307
-4.893751	-23.553520	 1.057092	-23.942900	 19.938560	 3.858180	 3.567404	-34.286220	 175.806300	-2.666628	-43.080860	-1.245247	-1.316733	 82.214100	 0.008304	-2.319993	 37.927660	-0.221411	-0.741946	-35.075280	-179.225600	-2.966743	-41.572560	-0.961810	-1.814885	 83.481330	 0.848872	 2.404853	 21.406590	-0.145041	-4.141072	 13.831580	 1.950044	-8.307621	 1.512803	-1.216697	-11.090790	-4.299274	-1.150386	-106.847900	 88.573720	-160.735800	 67.370300	 70.051830	-65.250800	 13.291390	-14.923370	-31.500270	 10.753540	-49.647130	 3.668353	-4.149306	-11.108410	 2.137663	-5.213516	-0.193813	 3.566525	-1.378229	 35.397820	-2.634230	 1.057715	-0.774337	-2.537194	-2.704695	-9.000706	 1.265807	 94.909030	 86.828370	 171.130800	-22.397990	 80.529620	 23.072330	-25.800190	-23.875420	 29.272130	-34.393910	-51.079420	 2.568490	-8.545336	-7.784100	-37.270180	 5.070815	-0.697434	-9.399699	-2.350882	 35.473990	 5.254307
-4.896852	-23.558790	 1.058205	-23.782120	 20.010540	 3.831568	 3.533116	-34.067360	 175.776000	-2.526702	-42.913060	-1.164915	-1.315428	 82.282000	 0.079881	-2.317166	 38.212720	-0.228716	-0.689285	-34.515120	-179.258300	-2.845878	-40.993870	-0.854367	-1.699729	 83.619360	 0.861959	 2.405092	 21.238390	-0.148414	-9.690572	 13.617860	 1.919402	-8.370159	 1.458754	-1.256608	-11.044890	-4.327070	-1.148263	-107.001100	 88.603390	-160.640400	 66.621700	 70.004320	-64.748310	 13.445080	-15.923170	-32.669020	 10.784190	-46.224820	 3.320292	-4.219384	-11.310310	 1.976669	-5.213516	-0.193813	 3.566525	-1.378229	 35.397820	-2.634230	 1.068011	-0.773179	-2.524235	-2.611329	-9.053897	 1.264633	 94.918100	 86.801450	 171.071700	-22.279980	 80.363220	 22.864790	-26.605710	-24.797070	 29.837790	-35.216070	-47.718410	 2.479826	-8.508152	-7.859997	-37.128850	 5.070815	-0.697434	-9.399699	-2.350882	 35.473990	 5.254307
-4.900066	-23.562770	 1.059120	-23.574820	 19.999790	 3.811378	 3.396770	-33.930660	 175.638000	-2.323417	-42.819000	-1.100868	-1.314576	 82.347400	 0.140028	-2.316192	 38.310080	-0.231220	-0.748561	-33.964770	-179.411700	-2.647824	-40.478260	-0.758219	-1.741789	 83.658330	 1.024255	 2.405303	 21.084320	-0.151498	-15.029340	 13.472590	 1.923201	-8.450048	 1.388644	-1.329082	-11.028690	-4.331044	-1.146949	-107.641200	 88.656810	-160.018700	 65.426060	 69.930230	-64.171060	 13.380570	-16.843280	-33.771920	 10.835880	-42.205420	 2.699343	-4.697004	-12.060900	 0.887000	-5.213516	-0.193813	 3.566525	-1.378229	 35.397820	-2.634230	 1.058129	-0.832451	-2.564726	-2.551056	-9.036064	 1.202105	 94.835290	 86.730500	 171.101200	-23.071060	 80.297670	 23.971980	-27.055320	-25.604440	 30.350570	-35.864040	-43.748490	 2.688246	-8.515676	-7.901203	-37.118200	 5.070815	-0.697434	-9.399699	-2.350882	 35.473990	 5.254307
-4.903057	-23.566290	 1.059805	-23.521390	 19.940610	 3.848448	 3.256309	-33.615670	 175.492100	-2.214181	-42.721520	-1.107319	-1.330549	 82.372150	 0.140630	-2.315851	 38.343320	-0.232075	-0.776717	-33.580310	-179.506000	-2.611850	-40.070820	-0.752515	-1.727931	 83.740010	 1.022645	 2.405478	 20.949530	-0.154194	-20.279480	 13.312590	 1.936200	-8.461987	 1.330462	-1.379802	-11.036820	-4.308693	-1.145656	-108.641200	 88.722980	-159.010400	 63.684300	 69.895010	-63.326110	 12.941420	-17.633710	-34.808110	 10.799530	-37.460130	 1.840737	-4.973724	-13.055720	 0.292589	-5.213516	-0.193813	 3.566525	-1.378229	 35.397820	-2.634230	 1.051820	-0.867309	-2.607888	-2.555125	-8.980173	 1.151719	 94.689250	 86.661580	 171.248100	-24.639880	 80.217140	 25.925150	-27.312220	-26.337440	 30.881000	-36.347920	-39.043420	 3.168330	-8.552578	-7.919453	-37.193370	 5.070815	-0.697434	-9.399699	-2.350882	 35.473990	 5.254307
-4.905906	-23.569460	 1.060310	-23.621780	 19.871460	 3.827480	 3.209064	-33.108300	 175.429600	-2.274948	-42.458060	-1.173371	-1.382040	 82.317380	 0.102609	-2.315452	 38.382570	-0.233090	-0.820541	-33.254790	-179.523100	-2.687716	-39.763430	-0.826793	-1.796605	 83.862720	 1.009128	 2.405557	 20.890390	-0.155377	-25.225520	 13.103000	 2.050753	-8.429297	 1.302587	-1.374992	-11.046820	-4.262297	-1.142251	-109.763100	 88.785980	-157.867000	 61.670790	 69.799540	-62.254210	 12.119920	-18.203700	-35.832180	 10.507360	-32.219910	 0.824089	-5.790916	-14.189640	-1.478698	-5.213516	-0.193813	 3.566525	-1.378229	 35.397820	-2.634230	 1.062555	-0.902633	-2.657793	-2.587658	-8.885548	 1.077652	 94.553540	 86.607770	 171.405300	-28.194350	 79.994260	 29.931950	-27.593390	-26.978140	 31.431770	-36.700780	-33.843060	 3.858213	-8.567657	-7.951641	-37.206920	 5.070815	-0.697434	-9.399699	-2.350882	 35.473990	 5.254307
